Normalized EMG Linear Envelopes
nRows=124
nColumns=4

endheader
time	 med_gas_r	  soleus_r	 tib_ant_r	
4.24973	  0.294165	  0.174593	  0.767569	
4.31222	  0.265483	  0.178350	  0.672079	
4.37472	  0.251691	  0.179636	  0.603450	
4.43722	  0.258149	  0.179308	  0.574256	
4.49971	  0.279036	  0.179065	  0.576248	
4.56221	  0.304523	  0.177907	  0.591351	
4.6247	  0.329418	  0.174664	  0.607825	
4.6872	  0.355640	  0.171684	  0.623917	
4.7497	  0.386199	  0.171916	  0.640664	
4.81219	  0.417820	  0.174678	  0.653019	
4.87469	  0.443728	  0.177275	  0.647635	
4.93718	  0.463595	  0.178412	  0.613287	
4.99968	  0.480973	  0.178934	  0.557015	
5.06218	  0.492387	  0.180690	  0.506219	
5.12467	  0.495469	  0.184113	  0.488535	
5.18717	  0.501608	  0.187471	  0.512455	
5.24966	  0.521712	  0.189442	  0.568716	
5.31216	  0.550546	  0.191241	  0.638983	
5.37466	  0.577977	  0.196815	  0.701042	
5.43715	  0.601352	  0.210007	  0.737443	
5.49965	  0.623133	  0.229153	  0.744137	
5.56214	  0.648709	  0.248303	  0.730985	
5.62464	  0.680707	  0.265866	  0.713771	
5.68714	  0.711395	  0.286492	  0.703398	
5.74963	  0.731721	  0.311851	  0.702754	
5.81213	  0.741789	  0.334479	  0.710280	
5.87462	  0.744723	  0.345274	  0.721946	
5.93712	  0.741050	  0.343305	  0.732441	
5.99962	  0.733390	  0.333901	  0.734795	
6.06211	  0.728657	  0.322133	  0.721340	
6.12461	  0.730490	  0.310710	  0.693605	
6.1871	  0.735065	  0.299880	  0.663978	
6.2496	  0.738032	  0.289269	  0.639623	
6.3121	  0.739725	  0.280859	  0.619697	
6.37459	  0.743290	  0.278890	  0.607536	
6.43709	  0.749345	  0.287707	  0.607001	
6.49958	  0.752369	  0.308091	  0.613577	
6.56208	  0.745321	  0.333177	  0.619270	
6.62458	  0.725385	  0.352264	  0.622049	
6.68707	  0.694936	  0.360058	  0.632142	
6.74957	  0.660570	  0.357104	  0.662897	
6.81206	  0.629042	  0.344065	  0.705851	
6.87456	  0.604976	  0.322722	  0.729423	
6.93706	  0.593678	  0.299559	  0.711169	
6.99955	  0.600604	  0.282809	  0.656998	
7.06205	  0.624977	  0.277104	  0.590354	
7.12454	  0.656393	  0.281651	  0.535862	
7.18704	  0.682002	  0.292875	  0.508723	
7.24954	  0.697196	  0.309737	  0.510797	
7.31203	  0.705109	  0.332940	  0.534598	
7.37453	  0.708166	  0.357943	  0.570422	
7.43702	  0.706572	  0.375183	  0.610334	
7.49952	  0.700887	  0.376928	  0.645611	
7.56202	  0.690016	  0.363651	  0.663116	
7.62451	  0.670716	  0.348520	  0.653697	
7.68701	  0.641732	  0.347980	  0.626942	
7.7495	  0.608811	  0.363679	  0.604618	
7.812	  0.586360	  0.384958	  0.596402	
7.8745	  0.589012	  0.404617	  0.596169	
7.93699	  0.619855	  0.419613	  0.599330	
7.99949	  0.666852	  0.426305	  0.605682	
8.06198	  0.708683	  0.425450	  0.609987	
8.12448	  0.730345	  0.424190	  0.606555	
8.18698	  0.734305	  0.428263	  0.595121	
8.24947	  0.729472	  0.437717	  0.574140	
8.31197	  0.715988	  0.450679	  0.543582	
8.37446	  0.691417	  0.463255	  0.517198	
8.43696	  0.662513	  0.466438	  0.517637	
8.49946	  0.636790	  0.452466	  0.553990	
8.56195	  0.612534	  0.424791	  0.605308	
8.62445	  0.590712	  0.398676	  0.633300	
8.68694	  0.583432	  0.391120	  0.619404	
8.74944	  0.600129	  0.408179	  0.580259	
8.81194	  0.637666	  0.440971	  0.539697	
8.87443	  0.683669	  0.472177	  0.504629	
8.93693	  0.717399	  0.489762	  0.476936	
8.99942	  0.719319	  0.498772	  0.463173	
9.06192	  0.691052	  0.511369	  0.461319	
9.12442	  0.653533	  0.524664	  0.460162	
9.18691	  0.626222	  0.523098	  0.456928	
9.24941	  0.616780	  0.501448	  0.458537	
9.3119	  0.623306	  0.471426	  0.469860	
9.3744	  0.639219	  0.446604	  0.493823	
9.4369	  0.654006	  0.430418	  0.530363	
9.49939	  0.651333	  0.415468	  0.563903	
9.56189	  0.614054	  0.386949	  0.568797	
9.62438	  0.538287	  0.333690	  0.537936	
9.68688	  0.443784	  0.261875	  0.491791	
9.74938	  0.359681	  0.191824	  0.454272	
9.81187	  0.298485	  0.141368	  0.431178	
9.87437	  0.256214	  0.116723	  0.412640	
9.93686	  0.228513	  0.113352	  0.387633	
9.99936	  0.212159	  0.119710	  0.353209	
10.0619	  0.202792	  0.125002	  0.312025	
10.1244	  0.200218	  0.126751	  0.268134	
10.1868	  0.207874	  0.127690	  0.228720	
10.2493	  0.223290	  0.127819	  0.202335	
10.3118	  0.233123	  0.125136	  0.191196	
10.3743	  0.225245	  0.120526	  0.189793	
10.4368	  0.207614	  0.116973	  0.192922	
10.4993	  0.201974	  0.115652	  0.201290	
10.5618	  0.213410	  0.114571	  0.216305	
10.6243	  0.223726	  0.111520	  0.232584	
10.6868	  0.220830	  0.107339	  0.240188	
10.7493	  0.212339	  0.104413	  0.233808	
10.8118	  0.205794	  0.103885	  0.217776	
10.8743	  0.199760	  0.104933	  0.201789	
10.9368	  0.194124	  0.104947	  0.191891	
10.9993	  0.189466	  0.102645	  0.187207	
11.0618	  0.182372	  0.100943	  0.185962	
11.1243	  0.172260	  0.102829	  0.188867	
11.1868	  0.165486	  0.106638	  0.193329	
11.2493	  0.167562	  0.108933	  0.192489	
11.3118	  0.174356	  0.108998	  0.185100	
11.3743	  0.177142	  0.108694	  0.179145	
11.4368	  0.176525	  0.110027	  0.181620	
11.4993	  0.178470	  0.112580	  0.190074	
11.5618	  0.177740	  0.113059	  0.196423	
11.6243	  0.164172	  0.109079	  0.195538	
11.6868	  0.142064	  0.102018	  0.188419	
11.7492	  0.125675	  0.094560	  0.179649	
11.8117	  0.120041	  0.087730	  0.174527	
11.8742	  0.118527	  0.081084	  0.176493	
11.9367	  0.115528	  0.074201	  0.184275	
